<svg xmlns="http://www.w3.org/2000/svg" xmlns:xlink="http://www.w3.org/1999/xlink" width="25.125" height="33.5" viewBox="0 0 25.125 33.5">
  <defs>
    <radialGradient id="radial-gradient" cx="0.5" cy="0.5" r="0.5" gradientUnits="objectBoundingBox">
      <stop offset="0" stop-color="#feb79c"/>
      <stop offset="1" stop-color="#fd5ca1"/>
    </radialGradient>
  </defs>
  <path id="Icon_awesome-clipboard-list" data-name="Icon awesome-clipboard-list" d="M21.984,4.188H16.75a4.188,4.188,0,0,0-8.375,0H3.141A3.141,3.141,0,0,0,0,7.328V30.359A3.141,3.141,0,0,0,3.141,33.5H21.984a3.141,3.141,0,0,0,3.141-3.141V7.328A3.141,3.141,0,0,0,21.984,4.188ZM6.281,27.742a1.57,1.57,0,1,1,1.57-1.57A1.567,1.567,0,0,1,6.281,27.742Zm0-6.281a1.57,1.57,0,1,1,1.57-1.57A1.567,1.567,0,0,1,6.281,21.461Zm0-6.281a1.57,1.57,0,1,1,1.57-1.57A1.567,1.567,0,0,1,6.281,15.18ZM12.563,2.617a1.57,1.57,0,1,1-1.57,1.57A1.567,1.567,0,0,1,12.563,2.617ZM20.938,26.7a.525.525,0,0,1-.523.523H10.992a.525.525,0,0,1-.523-.523V25.648a.525.525,0,0,1,.523-.523h9.422a.525.525,0,0,1,.523.523Zm0-6.281a.525.525,0,0,1-.523.523H10.992a.525.525,0,0,1-.523-.523V19.367a.525.525,0,0,1,.523-.523h9.422a.525.525,0,0,1,.523.523Zm0-6.281a.525.525,0,0,1-.523.523H10.992a.525.525,0,0,1-.523-.523V13.086a.525.525,0,0,1,.523-.523h9.422a.525.525,0,0,1,.523.523Z" fill="url(#radial-gradient)"/>
</svg>
